<svg width="197" height="204" viewBox="0 0 197 204" fill="none" xmlns="http://www.w3.org/2000/svg">
<rect width="197" height="204" rx="20" fill="url(#paint0_linear_157_33)"/>
<path d="M97.0979 57.8541C97.6966 56.0115 100.303 56.0115 100.902 57.8541L109.777 85.1672C110.044 85.9912 110.812 86.5491 111.679 86.5491H140.397C142.335 86.5491 143.14 89.0284 141.573 90.1672L118.339 107.048C117.638 107.557 117.345 108.46 117.613 109.284L126.487 136.597C127.086 138.439 124.977 139.972 123.409 138.833L100.176 121.952C99.4746 121.443 98.5254 121.443 97.8244 121.952L74.5905 138.833C73.0231 139.972 70.9141 138.439 71.5128 136.597L80.3874 109.284C80.6552 108.46 80.3618 107.557 79.6609 107.048L56.427 90.1672C54.8595 89.0284 55.6651 86.5491 57.6025 86.5491H86.3212C87.1877 86.5491 87.9556 85.9912 88.2233 85.1672L97.0979 57.8541Z" fill="#2B324B"/>
<defs>
<linearGradient id="paint0_linear_157_33" x1="833" y1="-567.5" x2="-70" y2="288.5" gradientUnits="userSpaceOnUse">
<stop offset="0.000899032" stop-color="#172554"/>
<stop offset="1" stop-color="white"/>
</linearGradient>
</defs>
</svg>
